<svg width="16" height="16" viewBox="0 0 16 16" fill="none" xmlns="http://www.w3.org/2000/svg">
<g clip-path="url(#clip0_352_228)">
<path d="M5.34277 4.04551C5.64307 4.40434 5.99569 4.85478 5.82263 5.92365L5.35184 8.44564L5.43836 10.4765C5.45618 11.1992 5.80228 11.525 6.41305 11.525H7.94509C8.43117 11.525 8.62714 11.1534 8.82309 10.6852L9.99119 7.80179L10.1108 10.5554C10.121 11.1661 10.4314 11.5275 10.9913 11.5275H12.7372C13.2334 11.5275 13.4395 11.2272 13.6583 10.6903L15.8877 5.16781C16.1295 4.5952 15.9896 4.04297 15.3863 4.04297H14.2641C13.8468 4.04297 13.5693 4.18548 13.4039 4.58249L11.8999 8.28278L11.7624 4.98203C11.7395 4.27963 11.4036 4.04551 11.0142 4.04551H9.87667C9.42623 4.04551 9.1641 4.2211 9.02413 4.56467L7.51246 8.28532L7.37757 4.90314C7.35722 4.26946 7.14855 4.04551 6.63955 4.04551H5.65722C5.63862 4.04551 5.34277 4.04551 5.34277 4.04551Z" fill="white"/>
<path fill-rule="evenodd" clip-rule="evenodd" d="M4.44285 4.22978C4.88312 4.55043 5.12997 5.02125 4.9951 5.69309L4.12473 10.3477C3.99749 11.1061 3.2671 11.6049 2.50873 11.4624C1.7936 11.325 1.2668 10.6531 1.40932 9.84639L1.90303 7.15133L1.5951 7.2913C1.02504 7.54834 0.353184 7.2913 0.0986943 6.71615C-0.155796 6.14099 0.0986943 5.4666 0.668754 5.20701L2.9668 4.18652C3.50888 3.91421 4.02549 3.94984 4.44285 4.22978Z" fill="white"/>
</g>
<defs>
<clipPath id="clip0_352_228">
<rect width="16" height="16" fill="white"/>
</clipPath>
</defs>
</svg>
